<mxfile host="app.diagrams.net" agent="Mozilla/5.0 (X11; Linux x86_64) AppleWebKit/537.36 (KHTML, like Gecko) Chrome/138.0.0.0 Safari/537.36" version="27.2.0">
  <diagram name="Page-1" id="P6XHC45i_bUvYeJ-fVqn">
    <mxGraphModel dx="2235" dy="802" grid="1" gridSize="10" guides="1" tooltips="1" connect="1" arrows="1" fold="1" page="1" pageScale="1" pageWidth="850" pageHeight="1100" math="0" shadow="0">
      <root>
        <mxCell id="0" />
        <mxCell id="1" parent="0" />
        <mxCell id="7CeD2W4gt2jp2_4vESI6-9" value="" style="shape=mxgraph.networks2.icon;aspect=fixed;fillColor=#EDEDED;strokeColor=#000000;gradientColor=#5B6163;network2IconShadow=1;network2bgFillColor=none;network2Icon=mxgraph.networks2.gamepad;network2IconXOffset=0.00005;network2IconYOffset=0.00163;network2IconW=1.0021;network2IconH=0.7358;" vertex="1" parent="1">
          <mxGeometry x="720" y="350" width="50.105" height="36.79" as="geometry" />
        </mxCell>
        <mxCell id="7CeD2W4gt2jp2_4vESI6-31" value="" style="group" vertex="1" connectable="0" parent="1">
          <mxGeometry x="160" y="320" width="160" height="70" as="geometry" />
        </mxCell>
        <mxCell id="7CeD2W4gt2jp2_4vESI6-28" value="" style="group" vertex="1" connectable="0" parent="7CeD2W4gt2jp2_4vESI6-31">
          <mxGeometry y="30" width="160" height="40" as="geometry" />
        </mxCell>
        <mxCell id="7CeD2W4gt2jp2_4vESI6-12" value="" style="swimlane;startSize=0;" vertex="1" parent="7CeD2W4gt2jp2_4vESI6-28">
          <mxGeometry width="40" height="40" as="geometry" />
        </mxCell>
        <mxCell id="7CeD2W4gt2jp2_4vESI6-24" value="" style="swimlane;startSize=0;" vertex="1" parent="7CeD2W4gt2jp2_4vESI6-28">
          <mxGeometry x="40" width="40" height="40" as="geometry" />
        </mxCell>
        <mxCell id="7CeD2W4gt2jp2_4vESI6-25" value="" style="swimlane;startSize=0;" vertex="1" parent="7CeD2W4gt2jp2_4vESI6-28">
          <mxGeometry x="120" width="40" height="40" as="geometry" />
        </mxCell>
        <mxCell id="7CeD2W4gt2jp2_4vESI6-26" value="" style="swimlane;startSize=0;" vertex="1" parent="7CeD2W4gt2jp2_4vESI6-28">
          <mxGeometry x="80" width="40" height="40" as="geometry" />
        </mxCell>
        <mxCell id="7CeD2W4gt2jp2_4vESI6-30" value="ds4_input_queue" style="text;html=1;align=center;verticalAlign=middle;resizable=0;points=[];autosize=1;strokeColor=none;fillColor=none;" vertex="1" parent="7CeD2W4gt2jp2_4vESI6-31">
          <mxGeometry x="25" width="110" height="30" as="geometry" />
        </mxCell>
        <mxCell id="7CeD2W4gt2jp2_4vESI6-34" value="" style="group" vertex="1" connectable="0" parent="1">
          <mxGeometry x="160" y="420" width="160" height="70" as="geometry" />
        </mxCell>
        <mxCell id="7CeD2W4gt2jp2_4vESI6-21" value="" style="group" vertex="1" connectable="0" parent="7CeD2W4gt2jp2_4vESI6-34">
          <mxGeometry y="30" width="160" height="40" as="geometry" />
        </mxCell>
        <mxCell id="7CeD2W4gt2jp2_4vESI6-15" value="" style="swimlane;startSize=0;" vertex="1" collapsed="1" parent="7CeD2W4gt2jp2_4vESI6-21">
          <mxGeometry x="40" width="40" height="40" as="geometry">
            <mxRectangle x="150" y="490" width="40" height="40" as="alternateBounds" />
          </mxGeometry>
        </mxCell>
        <mxCell id="7CeD2W4gt2jp2_4vESI6-33" value="" style="group" vertex="1" connectable="0" parent="7CeD2W4gt2jp2_4vESI6-21">
          <mxGeometry width="160" height="40" as="geometry" />
        </mxCell>
        <mxCell id="7CeD2W4gt2jp2_4vESI6-10" value="" style="swimlane;startSize=0;" vertex="1" parent="7CeD2W4gt2jp2_4vESI6-33">
          <mxGeometry width="40" height="40" as="geometry" />
        </mxCell>
        <mxCell id="7CeD2W4gt2jp2_4vESI6-13" value="" style="swimlane;startSize=0;" vertex="1" parent="7CeD2W4gt2jp2_4vESI6-33">
          <mxGeometry x="120" width="40" height="40" as="geometry" />
        </mxCell>
        <mxCell id="7CeD2W4gt2jp2_4vESI6-14" value="" style="swimlane;startSize=0;" vertex="1" parent="7CeD2W4gt2jp2_4vESI6-33">
          <mxGeometry x="80" width="40" height="40" as="geometry" />
        </mxCell>
        <mxCell id="7CeD2W4gt2jp2_4vESI6-32" value="ds4_output_event_queue" style="text;html=1;align=center;verticalAlign=middle;resizable=0;points=[];autosize=1;strokeColor=none;fillColor=none;" vertex="1" parent="7CeD2W4gt2jp2_4vESI6-34">
          <mxGeometry x="10" width="140" height="30" as="geometry" />
        </mxCell>
        <mxCell id="7CeD2W4gt2jp2_4vESI6-35" value="" style="swimlane;startSize=0;" vertex="1" parent="1">
          <mxGeometry x="320" y="290" width="158.75" height="40" as="geometry" />
        </mxCell>
        <mxCell id="7CeD2W4gt2jp2_4vESI6-36" value="ds4_low_battery_signal_task" style="text;html=1;align=center;verticalAlign=middle;resizable=0;points=[];autosize=1;strokeColor=none;fillColor=none;" vertex="1" parent="7CeD2W4gt2jp2_4vESI6-35">
          <mxGeometry x="-1.25" y="5" width="160" height="30" as="geometry" />
        </mxCell>
        <mxCell id="7CeD2W4gt2jp2_4vESI6-39" value="" style="swimlane;startSize=0;" vertex="1" parent="1">
          <mxGeometry x="475" y="450" width="150" height="40" as="geometry" />
        </mxCell>
        <mxCell id="7CeD2W4gt2jp2_4vESI6-37" value="ds4_output_event_task" style="text;html=1;align=center;verticalAlign=middle;resizable=0;points=[];autosize=1;strokeColor=none;fillColor=none;" vertex="1" parent="7CeD2W4gt2jp2_4vESI6-39">
          <mxGeometry x="10" y="5" width="130" height="30" as="geometry" />
        </mxCell>
        <mxCell id="7CeD2W4gt2jp2_4vESI6-40" value="" style="swimlane;startSize=0;" vertex="1" parent="1">
          <mxGeometry x="475" y="348.39" width="150" height="40" as="geometry" />
        </mxCell>
        <mxCell id="7CeD2W4gt2jp2_4vESI6-38" value="bluepad32-task" style="text;html=1;align=center;verticalAlign=middle;resizable=0;points=[];autosize=1;strokeColor=none;fillColor=none;" vertex="1" parent="7CeD2W4gt2jp2_4vESI6-40">
          <mxGeometry x="25" y="5" width="100" height="30" as="geometry" />
        </mxCell>
        <mxCell id="7CeD2W4gt2jp2_4vESI6-43" value="" style="endArrow=classic;html=1;rounded=0;entryX=1;entryY=0.5;entryDx=0;entryDy=0;exitX=0;exitY=0.5;exitDx=0;exitDy=0;" edge="1" parent="1" source="7CeD2W4gt2jp2_4vESI6-40" target="7CeD2W4gt2jp2_4vESI6-25">
          <mxGeometry width="50" height="50" relative="1" as="geometry">
            <mxPoint x="400" y="440" as="sourcePoint" />
            <mxPoint x="450" y="390" as="targetPoint" />
          </mxGeometry>
        </mxCell>
        <mxCell id="7CeD2W4gt2jp2_4vESI6-44" value="" style="endArrow=classic;html=1;rounded=0;entryX=0.5;entryY=1;entryDx=0;entryDy=0;exitX=0.5;exitY=0;exitDx=0;exitDy=0;" edge="1" parent="1" source="7CeD2W4gt2jp2_4vESI6-39" target="7CeD2W4gt2jp2_4vESI6-40">
          <mxGeometry width="50" height="50" relative="1" as="geometry">
            <mxPoint x="400" y="440" as="sourcePoint" />
            <mxPoint x="450" y="390" as="targetPoint" />
          </mxGeometry>
        </mxCell>
        <mxCell id="7CeD2W4gt2jp2_4vESI6-45" value="" style="endArrow=classic;html=1;rounded=0;exitX=1;exitY=0.5;exitDx=0;exitDy=0;entryX=0;entryY=0.5;entryDx=0;entryDy=0;" edge="1" parent="1" source="7CeD2W4gt2jp2_4vESI6-13" target="7CeD2W4gt2jp2_4vESI6-39">
          <mxGeometry width="50" height="50" relative="1" as="geometry">
            <mxPoint x="400" y="440" as="sourcePoint" />
            <mxPoint x="450" y="390" as="targetPoint" />
          </mxGeometry>
        </mxCell>
        <mxCell id="7CeD2W4gt2jp2_4vESI6-46" value="" style="endArrow=classic;html=1;rounded=0;entryX=0.5;entryY=1;entryDx=0;entryDy=0;exitX=0.5;exitY=0;exitDx=0;exitDy=0;" edge="1" parent="1" source="7CeD2W4gt2jp2_4vESI6-40" target="7CeD2W4gt2jp2_4vESI6-3">
          <mxGeometry width="50" height="50" relative="1" as="geometry">
            <mxPoint x="560" y="340" as="sourcePoint" />
            <mxPoint x="450" y="390" as="targetPoint" />
          </mxGeometry>
        </mxCell>
        <mxCell id="7CeD2W4gt2jp2_4vESI6-7" value="" style="group" vertex="1" connectable="0" parent="1">
          <mxGeometry x="340" y="190" width="280" height="40" as="geometry" />
        </mxCell>
        <mxCell id="7CeD2W4gt2jp2_4vESI6-1" value="" style="swimlane;startSize=0;" vertex="1" parent="7CeD2W4gt2jp2_4vESI6-7">
          <mxGeometry width="140" height="40" as="geometry" />
        </mxCell>
        <mxCell id="7CeD2W4gt2jp2_4vESI6-4" value="DS4_CONNECTED" style="text;html=1;align=center;verticalAlign=middle;resizable=0;points=[];autosize=1;strokeColor=none;fillColor=none;" vertex="1" parent="7CeD2W4gt2jp2_4vESI6-1">
          <mxGeometry x="10" y="5" width="120" height="30" as="geometry" />
        </mxCell>
        <mxCell id="7CeD2W4gt2jp2_4vESI6-3" value="" style="swimlane;startSize=0;" vertex="1" parent="7CeD2W4gt2jp2_4vESI6-7">
          <mxGeometry x="140" width="140" height="40" as="geometry" />
        </mxCell>
        <mxCell id="7CeD2W4gt2jp2_4vESI6-5" value="DS4_BATTERY_LOW" style="text;html=1;align=center;verticalAlign=middle;resizable=0;points=[];autosize=1;strokeColor=none;fillColor=none;" vertex="1" parent="7CeD2W4gt2jp2_4vESI6-3">
          <mxGeometry y="5" width="140" height="30" as="geometry" />
        </mxCell>
        <mxCell id="7CeD2W4gt2jp2_4vESI6-8" value="ds4_event_group" style="text;html=1;align=center;verticalAlign=middle;resizable=0;points=[];autosize=1;strokeColor=none;fillColor=none;" vertex="1" parent="7CeD2W4gt2jp2_4vESI6-3">
          <mxGeometry x="-55" y="-30" width="110" height="30" as="geometry" />
        </mxCell>
        <mxCell id="7CeD2W4gt2jp2_4vESI6-47" value="" style="endArrow=classic;html=1;rounded=0;exitX=0.25;exitY=1;exitDx=0;exitDy=0;entryX=1.005;entryY=0.533;entryDx=0;entryDy=0;entryPerimeter=0;" edge="1" parent="1" source="7CeD2W4gt2jp2_4vESI6-3" target="7CeD2W4gt2jp2_4vESI6-36">
          <mxGeometry width="50" height="50" relative="1" as="geometry">
            <mxPoint x="400" y="440" as="sourcePoint" />
            <mxPoint x="450" y="390" as="targetPoint" />
          </mxGeometry>
        </mxCell>
        <mxCell id="7CeD2W4gt2jp2_4vESI6-48" value="" style="swimlane;startSize=0;" vertex="1" parent="1">
          <mxGeometry x="150" y="150" width="520" height="370" as="geometry" />
        </mxCell>
        <mxCell id="7CeD2W4gt2jp2_4vESI6-42" value="" style="shape=flexArrow;endArrow=classic;startArrow=classic;html=1;rounded=0;entryX=-0.02;entryY=0.516;entryDx=0;entryDy=0;entryPerimeter=0;exitX=1;exitY=0.5;exitDx=0;exitDy=0;" edge="1" parent="1" source="7CeD2W4gt2jp2_4vESI6-40" target="7CeD2W4gt2jp2_4vESI6-9">
          <mxGeometry width="100" height="100" relative="1" as="geometry">
            <mxPoint x="380" y="460" as="sourcePoint" />
            <mxPoint x="480" y="360" as="targetPoint" />
          </mxGeometry>
        </mxCell>
        <mxCell id="7CeD2W4gt2jp2_4vESI6-49" value="ds4_rumble()" style="text;html=1;align=center;verticalAlign=middle;resizable=0;points=[];autosize=1;strokeColor=none;fillColor=none;" vertex="1" parent="1">
          <mxGeometry x="20" y="430" width="90" height="30" as="geometry" />
        </mxCell>
        <mxCell id="7CeD2W4gt2jp2_4vESI6-50" value="ds4_lightbar_color()" style="text;html=1;align=center;verticalAlign=middle;resizable=0;points=[];autosize=1;strokeColor=none;fillColor=none;" vertex="1" parent="1">
          <mxGeometry x="5" y="470" width="120" height="30" as="geometry" />
        </mxCell>
        <mxCell id="7CeD2W4gt2jp2_4vESI6-51" value="ds4_wait_for_connection()" style="text;html=1;align=center;verticalAlign=middle;resizable=0;points=[];autosize=1;strokeColor=none;fillColor=none;" vertex="1" parent="1">
          <mxGeometry x="-10" y="220" width="150" height="30" as="geometry" />
        </mxCell>
        <mxCell id="7CeD2W4gt2jp2_4vESI6-52" value="" style="endArrow=classic;html=1;rounded=0;entryX=0.457;entryY=1.025;entryDx=0;entryDy=0;entryPerimeter=0;" edge="1" parent="1" target="7CeD2W4gt2jp2_4vESI6-1">
          <mxGeometry width="50" height="50" relative="1" as="geometry">
            <mxPoint x="550" y="280" as="sourcePoint" />
            <mxPoint x="450" y="390" as="targetPoint" />
          </mxGeometry>
        </mxCell>
        <mxCell id="7CeD2W4gt2jp2_4vESI6-53" value="ds4_is_connected()" style="text;html=1;align=center;verticalAlign=middle;resizable=0;points=[];autosize=1;strokeColor=none;fillColor=none;" vertex="1" parent="1">
          <mxGeometry x="5" y="180" width="120" height="30" as="geometry" />
        </mxCell>
        <mxCell id="7CeD2W4gt2jp2_4vESI6-54" value="" style="endArrow=classic;html=1;rounded=0;exitX=1.011;exitY=0.5;exitDx=0;exitDy=0;exitPerimeter=0;entryX=0;entryY=0.25;entryDx=0;entryDy=0;" edge="1" parent="1" source="7CeD2W4gt2jp2_4vESI6-49" target="7CeD2W4gt2jp2_4vESI6-10">
          <mxGeometry width="50" height="50" relative="1" as="geometry">
            <mxPoint x="400" y="440" as="sourcePoint" />
            <mxPoint x="450" y="390" as="targetPoint" />
          </mxGeometry>
        </mxCell>
        <mxCell id="7CeD2W4gt2jp2_4vESI6-55" value="" style="endArrow=classic;html=1;rounded=0;exitX=1.008;exitY=0.467;exitDx=0;exitDy=0;exitPerimeter=0;entryX=0;entryY=0.75;entryDx=0;entryDy=0;" edge="1" parent="1" source="7CeD2W4gt2jp2_4vESI6-50" target="7CeD2W4gt2jp2_4vESI6-10">
          <mxGeometry width="50" height="50" relative="1" as="geometry">
            <mxPoint x="400" y="440" as="sourcePoint" />
            <mxPoint x="450" y="390" as="targetPoint" />
          </mxGeometry>
        </mxCell>
        <mxCell id="7CeD2W4gt2jp2_4vESI6-58" value="" style="endArrow=classic;html=1;rounded=0;entryX=1;entryY=0.4;entryDx=0;entryDy=0;entryPerimeter=0;exitX=0;exitY=0.25;exitDx=0;exitDy=0;" edge="1" parent="1" source="7CeD2W4gt2jp2_4vESI6-1" target="7CeD2W4gt2jp2_4vESI6-53">
          <mxGeometry width="50" height="50" relative="1" as="geometry">
            <mxPoint x="400" y="440" as="sourcePoint" />
            <mxPoint x="450" y="390" as="targetPoint" />
          </mxGeometry>
        </mxCell>
        <mxCell id="7CeD2W4gt2jp2_4vESI6-59" value="" style="endArrow=classic;html=1;rounded=0;entryX=0.993;entryY=0.5;entryDx=0;entryDy=0;entryPerimeter=0;exitX=0;exitY=0.75;exitDx=0;exitDy=0;" edge="1" parent="1" source="7CeD2W4gt2jp2_4vESI6-1" target="7CeD2W4gt2jp2_4vESI6-51">
          <mxGeometry width="50" height="50" relative="1" as="geometry">
            <mxPoint x="400" y="440" as="sourcePoint" />
            <mxPoint x="450" y="390" as="targetPoint" />
          </mxGeometry>
        </mxCell>
        <mxCell id="7CeD2W4gt2jp2_4vESI6-60" value="ds4_driver" style="text;html=1;align=center;verticalAlign=middle;resizable=0;points=[];autosize=1;strokeColor=none;fillColor=none;" vertex="1" parent="1">
          <mxGeometry x="364.38" y="120" width="70" height="30" as="geometry" />
        </mxCell>
      </root>
    </mxGraphModel>
  </diagram>
</mxfile>
